<svg xmlns="http://www.w3.org/2000/svg" xmlns:xlink="http://www.w3.org/1999/xlink" viewBox="0,0,256,256" width="80px" height="80px" fill-rule="nonzero"><g fill="#858585" fill-rule="nonzero" stroke="none" stroke-width="1" stroke-linecap="butt" stroke-linejoin="miter" stroke-miterlimit="10" stroke-dasharray="" stroke-dashoffset="0" font-family="none" font-size="none" style="mix-blend-mode: normal"><g transform="scale(10.66667,10.66667)"><path d="M5,2c-1.64497,0 -3,1.35503 -3,3v12c0,0.76858 0.30412,1.46665 0.78711,2h-0.02148c0,0 1.31433,1.45684 2.11133,2.33984c0.379,0.42 0.91838,0.66016 1.48438,0.66016h13.63867c0.53,0 1.03906,-0.21094 1.41406,-0.58594c0.375,-0.375 0.58594,-0.88406 0.58594,-1.41406v-8.22461c0,-0.499 -0.18548,-0.97966 -0.52148,-1.34766c-1.12231,-1.23036 -3.57788,-3.92416 -3.71289,-4.07227c-0.01863,-0.02166 -0.03818,-0.04251 -0.05859,-0.0625c-0.0007,-0.00076 -0.04297,-0.04883 -0.04297,-0.04883v0.00586l-3.95703,-3.95703c-0.18751,-0.18754 -0.44183,-0.29292 -0.70703,-0.29297zM5,4h7.58594l3.41406,3.41406v9.58594c0,0.56503 -0.43497,1 -1,1h-10c-0.56503,0 -1,-0.43497 -1,-1v-12c0,-0.56503 0.43497,-1 1,-1zM7,6c-0.36064,-0.0051 -0.69608,0.18438 -0.87789,0.49587c-0.18181,0.3115 -0.18181,0.69676 0,1.00825c0.18181,0.3115 0.51725,0.50097 0.87789,0.49587h4c0.36064,0.0051 0.69608,-0.18438 0.87789,-0.49587c0.18181,-0.3115 0.18181,-0.69676 0,-1.00825c-0.18181,-0.3115 -0.51725,-0.50097 -0.87789,-0.49587zM7,10c-0.36064,-0.0051 -0.69608,0.18438 -0.87789,0.49587c-0.18181,0.3115 -0.18181,0.69676 0,1.00825c0.18181,0.3115 0.51725,0.50097 0.87789,0.49587h6c0.36064,0.0051 0.69608,-0.18438 0.87789,-0.49587c0.18181,-0.3115 0.18181,-0.69676 0,-1.00825c-0.18181,-0.3115 -0.51725,-0.50097 -0.87789,-0.49587zM7,14c-0.36064,-0.0051 -0.69608,0.18438 -0.87789,0.49587c-0.18181,0.3115 -0.18181,0.69676 0,1.00825c0.18181,0.3115 0.51725,0.50097 0.87789,0.49587h6c0.36064,0.0051 0.69608,-0.18438 0.87789,-0.49587c0.18181,-0.3115 0.18181,-0.69676 0,-1.00825c-0.18181,-0.3115 -0.51725,-0.50097 -0.87789,-0.49587z"></path></g></g></svg>